<?xml version="1.0" encoding="utf-8"?>
<!-- Generator: Adobe Illustrator 16.0.4, SVG Export Plug-In . SVG Version: 6.00 Build 0)  -->
<!DOCTYPE svg PUBLIC "-//W3C//DTD SVG 1.1//EN" "http://www.w3.org/Graphics/SVG/1.1/DTD/svg11.dtd">
<svg version="1.1" id="Layer_1" xmlns="http://www.w3.org/2000/svg" xmlns:xlink="http://www.w3.org/1999/xlink" x="0px" y="0px"
	 width="6400px" height="4000px" viewBox="0 0 6400 4000" enable-background="new 0 0 6400 4000" xml:space="preserve">
<path fill="#FFFFFF" d="M3139.934,1767.876c22.66,0,44.314,6.852,64.364,20.366c21.167,14.268,40.544,35.832,57.596,64.093
	c32.188,53.35,46.766,114.551,49.676,154.039c5.395,73.119-11.418,132.903-48.621,172.888
	c-31.258,33.595-76.096,52.862-123.015,52.862c-48.045,0-92.871-18.384-122.983-50.437c-37.206-39.616-53.575-98.649-48.652-175.461
	c3.017-47.113,23.753-107.426,52.832-153.651C3055.487,1797.956,3097.679,1767.876,3139.934,1767.876 M3139.934,1744
	c-50.771,0-100.152,34.043-139.045,95.873c-31.039,49.342-53.195,114.041-56.445,164.83c-5.361,83.654,13.17,148.701,55.073,193.318
	c34.608,36.839,85.791,57.979,140.418,57.979c53.554,0,104.768-22.055,140.526-60.484c41.849-44.979,60.845-110.992,54.951-190.896
	c-3.113-42.239-18.686-107.663-53.042-164.607C3244.47,1777.199,3195.216,1744,3139.934,1744L3139.934,1744z"/>
<path fill="#FFFFFF" d="M3140.019,1955.094c63.044,0,114.334,51.225,114.334,114.188c0,62.968-51.29,114.196-114.334,114.196
	c-63.041,0-114.329-51.228-114.329-114.196C3025.69,2006.318,3076.979,1955.094,3140.019,1955.094 M3140.019,1931.217
	c-76.227,0-138.234,61.937-138.234,138.064c0,76.134,62.008,138.072,138.234,138.072c76.224,0,138.239-61.938,138.239-138.072
	C3278.258,1993.154,3216.243,1931.217,3140.019,1931.217L3140.019,1931.217z"/>
</svg>
